<?xml version="1.0" encoding="UTF-8" standalone="no"?>
<!-- Created with Inkscape (http://www.inkscape.org/) -->

<svg
   xmlns:dc="http://purl.org/dc/elements/1.1/"
   xmlns:cc="http://creativecommons.org/ns#"
   xmlns:rdf="http://www.w3.org/1999/02/22-rdf-syntax-ns#"
   xmlns:svg="http://www.w3.org/2000/svg"
   xmlns="http://www.w3.org/2000/svg"
   xmlns:xlink="http://www.w3.org/1999/xlink"
   xmlns:sodipodi="http://sodipodi.sourceforge.net/DTD/sodipodi-0.dtd"
   xmlns:inkscape="http://www.inkscape.org/namespaces/inkscape"
   version="1.1"
   width="130.08134"
   height="115.40903"
   viewBox="0 0 130.08134 115.40903"
   id="svg25154"
   sodipodi:docname="tttlogo_reduced.svg"
   inkscape:version="0.92.4 (5da689c313, 2019-01-14)">
  <sodipodi:namedview
     pagecolor="#ffffff"
     bordercolor="#666666"
     borderopacity="1"
     objecttolerance="10"
     gridtolerance="10"
     guidetolerance="10"
     inkscape:pageopacity="0"
     inkscape:pageshadow="2"
     inkscape:window-width="958"
     inkscape:window-height="1060"
     id="namedview32"
     showgrid="false"
     inkscape:zoom="2.6162951"
     inkscape:cx="96.461555"
     inkscape:cy="43.856143"
     inkscape:window-x="2330"
     inkscape:window-y="18"
     inkscape:window-maximized="0"
     inkscape:current-layer="svg25154"
     fit-margin-top="0"
     fit-margin-left="0"
     fit-margin-right="0"
     fit-margin-bottom="0" />
  <defs
     id="defs25156">
    <linearGradient
       x1="180.53191"
       y1="51.27142"
       x2="524.28192"
       y2="51.27142"
       id="linearGradient3774"
       xlink:href="#linearGradient3768"
       gradientUnits="userSpaceOnUse"
       gradientTransform="matrix(1.5637055,0,0,1,-101.76013,0)" />
    <linearGradient
       id="linearGradient3768">
      <stop
         id="stop3770"
         style="stop-color:#000000;stop-opacity:1"
         offset="0" />
      <stop
         id="stop3772"
         style="stop-color:#000000;stop-opacity:0"
         offset="1" />
    </linearGradient>
    <linearGradient
       x1="180.53191"
       y1="51.27142"
       x2="524.28192"
       y2="51.27142"
       id="linearGradient3065"
       xlink:href="#linearGradient3768"
       gradientUnits="userSpaceOnUse"
       gradientTransform="matrix(1.8973907,0,0,1,-186.52755,54.735559)" />
    <linearGradient
       x1="180.53191"
       y1="51.27142"
       x2="524.28192"
       y2="51.27142"
       id="linearGradient3065-1"
       xlink:href="#linearGradient3768-7"
       gradientUnits="userSpaceOnUse"
       gradientTransform="matrix(1.9439362,0,0,1,-204.1818,52.34674)" />
    <linearGradient
       id="linearGradient3768-7">
      <stop
         id="stop3770-4"
         style="stop-color:#000000;stop-opacity:1"
         offset="0" />
      <stop
         id="stop3772-0"
         style="stop-color:#000000;stop-opacity:0"
         offset="1" />
    </linearGradient>
    <linearGradient
       x1="180.53191"
       y1="51.27142"
       x2="524.28192"
       y2="51.27142"
       id="linearGradient3099"
       xlink:href="#linearGradient3768-7"
       gradientUnits="userSpaceOnUse"
       gradientTransform="matrix(1.9439362,0,0,1,-328.70853,114.82357)" />
    <style
       type="text/css"
       id="style2997" />
    <style
       type="text/css"
       id="style3027" />
    <linearGradient
       x1="180.53191"
       y1="51.27142"
       x2="524.28192"
       y2="51.27142"
       id="linearGradient3056"
       xlink:href="#linearGradient3768"
       gradientUnits="userSpaceOnUse"
       gradientTransform="matrix(1.934775,0,0,1.019703,-215.75834,-5.1393143)" />
    <style
       type="text/css"
       id="style15"><![CDATA[
        @font-face
        {
          font-family: CMU Serif;
          src: url('cmunrm.otf');
        }
      ]]></style>
  </defs>
  <metadata
     id="metadata25159">
    <rdf:RDF>
      <cc:Work
         rdf:about="">
        <dc:format>image/svg+xml</dc:format>
        <dc:type
           rdf:resource="http://purl.org/dc/dcmitype/StillImage" />
        <dc:title></dc:title>
      </cc:Work>
    </rdf:RDF>
  </metadata>
  <g
     id="g80"
     transform="translate(0.00152992,-1.5653056)">
    <g
       aria-label="T"
       style="font-style:normal;font-variant:normal;font-weight:normal;font-stretch:normal;font-size:128.1526947px;line-height:125%;font-family:'CMU Serif';-inkscape-font-specification:'CMU Serif';letter-spacing:0px;word-spacing:0px;fill:#000000;fill-opacity:1;stroke:none;stroke-width:1.01970303"
       id="text5575-15-16-4-9">
      <path
         d="m 23.476866,33.200394 h 3.203817 C 28.474821,12.56781 30.397112,8.3387712 49.748168,8.3387712 c 2.306749,0 5.638719,0 6.920246,0.2563054 2.691207,0.5126108 2.691207,1.9222904 2.691207,4.8698024 v 67.53647 c 0,4.357192 0,6.151329 -13.456033,6.151329 H 40.77748 v 3.972734 c 5.25426,-0.384458 18.325835,-0.384458 24.220859,-0.384458 5.895024,0 19.094752,0 24.349012,0.384458 v -3.972734 h -5.126108 c -13.456033,0 -13.456033,-1.794137 -13.456033,-6.151329 v -67.53647 c 0,-2.563054 0,-4.3571916 2.306749,-4.8698024 1.409679,-0.2563054 4.869802,-0.2563054 7.304703,-0.2563054 19.351057,0 21.273348,4.2290388 23.067488,24.8616228 h 3.20381 L 104.21306,4.3660377 H 25.911767 Z"
         style="stroke-width:1.01970303"
         id="path101" />
    </g>
    <g
       aria-label="T"
       transform="rotate(120)"
       style="font-style:normal;font-variant:normal;font-weight:normal;font-stretch:normal;font-size:128.1526947px;line-height:125%;font-family:'CMU Serif';-inkscape-font-specification:'CMU Serif';letter-spacing:0px;word-spacing:0px;fill:#000000;fill-opacity:1;stroke:none;stroke-width:1.01970303"
       id="text5575-1-9-5-1-7">
      <path
         d="m -26.115484,-106.2911 h 3.203817 c 1.794138,-20.63258 3.716429,-24.86162 23.06748541,-24.86162 2.30674849,0 5.63871859,0 6.92024549,0.25631 2.6912066,0.51261 2.6912066,1.92229 2.6912066,4.8698 v 67.53647 c 0,4.357191 0,6.151329 -13.4560329,6.151329 h -5.1261078 v 3.972734 c 5.2542605,-0.384459 18.3258353,-0.384459 24.2208592,-0.384459 5.895024,0 19.094752,0 24.349012,0.384459 v -3.972734 h -5.126108 c -13.456033,0 -13.456033,-1.794138 -13.456033,-6.151329 v -67.53647 c 0,-2.56305 0,-4.35719 2.306749,-4.8698 1.409679,-0.25631 4.869802,-0.25631 7.304703,-0.25631 19.351057,0 21.273348,4.22904 23.067485,24.86162 h 3.203818 l -2.434901,-28.83435 h -78.301297 z"
         style="stroke-width:1.01970303"
         id="path104" />
    </g>
    <g
       aria-label="T"
       transform="rotate(-120)"
       style="font-style:normal;font-variant:normal;font-weight:normal;font-stretch:normal;font-size:128.1526947px;line-height:125%;font-family:'CMU Serif';-inkscape-font-specification:'CMU Serif';letter-spacing:0px;word-spacing:0px;fill:#000000;fill-opacity:1;stroke:none;stroke-width:1.01970303"
       id="text5575-1-4-8-1-3-9">
      <path
         d="m -122.09384,6.360535 h 3.20382 c 1.79414,-20.632584 3.71643,-24.861623 23.067483,-24.861623 2.306749,0 5.638719,0 6.920246,0.256306 2.691206,0.51261 2.691206,1.92229 2.691206,4.869802 v 67.53647 c 0,4.357192 0,6.151329 -13.456033,6.151329 h -5.126112 v 3.972734 c 5.254265,-0.384458 18.32584,-0.384458 24.220864,-0.384458 5.895024,0 19.094751,0 24.349012,0.384458 v -3.972734 h -5.126108 c -13.456033,0 -13.456033,-1.794137 -13.456033,-6.151329 v -67.53647 c 0,-2.563054 0,-4.357192 2.306748,-4.869802 1.40968,-0.256306 4.869803,-0.256306 7.304704,-0.256306 19.351057,0 21.273347,4.229039 23.067485,24.861623 h 3.203817 l -2.434901,-28.834356 h -78.301298 z"
         style="stroke-width:1.01970303"
         id="path107" />
    </g>
  </g>
</svg>
